#!OML:ASF F:\VICON\USERDATA\INSTALL\rory3\rory3.ASF
:FULLY-SPECIFIED
:DEGREES
2959
root -10.5498 17.5293 -12.2997 20.9446 43.9971 12.8237
lowerback 13.639 3.69258 3.86091
upperback 6.36769 5.9009 10.1129
thorax -1.59057 3.01772 7.67053
lowerneck -6.98958 -14.3151 -7.72748
upperneck 31.2658 -19.8219 5.20115
head 12.9328 -8.69744 0.588404
rclavicle -4.6118e-014 -2.8625e-014
rhumerus 11.9346 -10.1678 -93.0583
rradius 32.8352
rwrist -19.8533
rhand -16.9707 -24.6891
rfingers 7.12502
rthumb 9.26362 -54.4656
lclavicle -4.6118e-014 -2.8625e-014
lhumerus -25.7817 -48.6508 96.9618
lradius 71.1458
lwrist 76.9802
lhand -24.4575 58.5157
lfingers 7.12502
lthumb 2.03549 -1351.51
rfemur -31.7135 -10.0795 11.7999
rtibia 46.4693
rfoot -24.6605 -3.32018
rtoes 12.5409
lfemur -27.6416 8.08076 -36.825
ltibia 31.4359
lfoot -12.6907 -5.77281
ltoes -12.2413
2960
root -10.5548 17.5389 -12.2946 20.7673 44.4172 12.7516
lowerback 13.6583 3.58506 4.11145
upperback 6.43468 5.78617 10.0759
thorax -1.48869 2.96477 7.50818
lowerneck -7.42209 -14.3709 -7.57157
upperneck 31.5391 -19.9764 5.31203
head 13.1459 -8.70438 0.5396
rclavicle 1.59028e-014 1.36764e-013
rhumerus 11.9687 -10.7012 -93.1336
rradius 32.9484
rwrist -19.9723
rhand -17.4816 -24.3232
rfingers 7.12502
rthumb 8.77061 -54.121
lclavicle 1.59028e-014 1.36764e-013
lhumerus -25.6091 -49.2729 97.2745
lradius 71.4413
lwrist 76.5623
lhand -24.3373 58.257
lfingers 7.12502
lthumb 2.15164 -1351.77
rfemur -31.3558 -10.2081 11.9625
rtibia 46.2885
rfoot -24.8253 -3.38321
rtoes 13.5598
lfemur -27.6238 8.10175 -36.4979
ltibia 31.8702
lfoot -12.9193 -6.44829
ltoes -13.7172
2961
root -10.5568 17.5465 -12.2905 20.7283 44.7052 12.7928
lowerback 13.6387 3.50996 4.22758
upperback 6.46077 5.69475 10.0127
thorax -1.42314 2.92131 7.38987
lowerneck -7.43078 -14.3961 -7.52304
upperneck 31.4068 -20.0803 5.53335
head 13.124 -8.72488 0.597271
rclavicle -2.54444e-014 1.90833e-014
rhumerus 11.9446 -11.3011 -93.1086
rradius 32.949
rwrist -19.9602
rhand -18.1433 -23.8856
rfingers 7.12502
rthumb 8.13205 -53.7091
lclavicle -2.54444e-014 1.90833e-014
lhumerus -25.453 -49.9116 97.7412
lradius 71.6224
lwrist 75.9934
lhand -24.3022 58.057
lfingers 7.12502
lthumb 2.18548 -1351.97
rfemur -31.0742 -10.4283 12.036
rtibia 46.0712
rfoot -24.8139 -3.51792
rtoes 13.2868
lfemur -27.6878 8.22307 -36.322
ltibia 32.3
lfoot -13.0742 -7.17636
ltoes -15.4694
2962
root -10.5596 17.5596 -12.2842 20.7078 45.0529 12.8013
lowerback 13.5864 3.40406 4.31577
upperback 6.43409 5.56106 9.94524
thorax -1.39478 2.85656 7.2891
lowerneck -7.29002 -14.3905 -7.34346
upperneck 31.2244 -20.1303 5.65839
head 13.0157 -8.72843 0.625907
rclavicle 3.65764e-014 -6.04305e-014
rhumerus 11.7932 -12.2028 -93.1741
rradius 33.1181
rwrist -19.8174
rhand -18.6212 -23.8679
rfingers 7.12502
rthumb 7.67073 -53.7087
lclavicle 3.65764e-014 -6.04305e-014
lhumerus -25.2693 -50.5506 98.2142
lradius 71.8023
lwrist 75.6656
lhand -24.6931 58.7722
lfingers 7.12502
lthumb 1.80793 -1351.26
rfemur -30.803 -10.631 12.1617
rtibia 45.8266
rfoot -24.7765 -3.85683
rtoes 12.4333
lfemur -27.8594 8.46224 -36.1264
ltibia 32.7593
lfoot -13.2044 -8.15148
ltoes -17.2218
2963
root -10.5634 17.5732 -12.2837 20.5738 45.4715 12.698
lowerback 13.5959 3.2325 4.45556
upperback 6.44109 5.35675 9.94822
thorax -1.35953 2.75837 7.24597
lowerneck -7.35645 -14.3326 -7.24012
upperneck 31.2951 -20.0881 5.71488
head 13.0504 -8.68695 0.632731
rclavicle 3.49861e-014 -3.18055e-015
rhumerus 11.6919 -13.0868 -93.1414
rradius 33.2995
rwrist -19.7291
rhand -18.9279 -23.8322
rfingers 7.12502
rthumb 7.37472 -53.6837
lclavicle 3.49861e-014 -3.18055e-015
lhumerus -25.0276 -50.948 98.8028
lradius 72.0149
lwrist 75.2132
lhand -25.3197 60.5199
lfingers 7.12502
lthumb 1.20277 -1530.5
rfemur -30.5013 -10.922 12.3753
rtibia 45.5873
rfoot -24.7008 -3.99872
rtoes 12.2041
lfemur -28.0215 8.55185 -35.7753
ltibia 33.2791
lfoot -13.4359 -8.95358
ltoes -18.7022
2964
root -10.5646 17.5858 -12.2873 20.508 45.7767 12.5916
lowerback 13.5782 3.06779 4.55862
upperback 6.43066 5.15294 9.92564
thorax -1.32999 2.65928 7.19591
lowerneck -7.53334 -14.2518 -7.15182
upperneck 31.559 -19.9888 5.65423
head 13.1717 -8.62185 0.595875
rclavicle 7.95139e-015 -6.04305e-014
rhumerus 11.4692 -13.6352 -92.8685
rradius 33.4726
rwrist -19.8449
rhand -19.5054 -23.6595
rfingers 7.12502
rthumb 6.81728 -53.5297
lclavicle 7.95139e-015 -6.04305e-014
lhumerus -24.9124 -51.2869 99.4499
lradius 72.273
lwrist 74.6791
lhand -25.4644 61.3629
lfingers 7.12502
lthumb 1.063 -1531.34
rfemur -30.3137 -11.1104 12.5488
rtibia 45.3303
rfoot -24.6281 -4.15808
rtoes 12.159
lfemur -28.2945 8.64827 -35.4795
ltibia 33.8394
lfoot -13.7313 -9.38385
ltoes -20.2241
2965
root -10.5667 17.5926 -12.2912 20.4526 46.0646 12.5377
lowerback 13.6113 2.89491 4.65284
upperback 6.46323 4.93523 9.85034
thorax -1.27778 2.55299 7.09392
lowerneck -7.69464 -14.1803 -7.04208
upperneck 31.6038 -19.9129 5.65951
head 13.2046 -8.57177 0.581294
rclavicle -2.38542e-014 -1.24042e-013
rhumerus 11.3746 -14.3257 -92.639
rradius 33.597
rwrist -19.914
rhand -20.0446 -23.6934
rfingers 7.12502
rthumb 6.29671 -53.5798
lclavicle -2.38542e-014 -1.24042e-013
lhumerus -24.4948 -51.7335 99.8952
lradius 72.3332
lwrist 74.1464
lhand -24.8685 61.0067
lfingers 7.12502
lthumb 1.63852 -1530.98
rfemur -30.1265 -11.3223 12.6777
rtibia 45.0879
rfoot -24.5947 -4.30658
rtoes 11.5982
lfemur -28.5873 8.76966 -35.2259
ltibia 34.421
lfoot -13.7092 -9.97342
ltoes -20.9399
2966
root -10.568 17.6028 -12.2921 20.4172 46.2299 12.5169
lowerback 13.5875 2.75848 4.58667
upperback 6.54342 4.73473 9.76801
thorax -1.15948 2.45284 7.07708
lowerneck -7.86838 -14.1228 -6.97277
upperneck 31.597 -19.8729 5.74673
head 13.2374 -8.53465 0.59545
rclavicle -7.4743e-014 -9.22361e-014
rhumerus 11.3499 -15.1675 -92.4062
rradius 33.6052
rwrist -19.7838
rhand -20.2949 -23.8474
rfingers 7.12502
rthumb 6.05508 -53.7408
lclavicle -7.4743e-014 -9.22361e-014
lhumerus -23.8512 -52.2587 100.265
lradius 72.2177
lwrist 73.7041
lhand -24.3826 60.2795
lfingers 7.12502
lthumb 2.10789 -1530.25
rfemur -29.9394 -11.3322 12.7168
rtibia 44.8441
rfoot -24.5858 -4.45743
rtoes 11.1679
lfemur -28.8473 8.88332 -34.9606
ltibia 35.0037
lfoot -13.4764 -10.7023
ltoes -22.5697
2967
root -10.5654 17.6167 -12.2956 20.4736 46.3991 12.5453
lowerback 13.5351 2.56895 4.50796
upperback 6.5272 4.46734 9.66993
thorax -1.12195 2.31846 7.05766
lowerneck -7.69833 -13.9971 -7.0619
upperneck 31.5437 -19.7736 6.05657
head 13.2249 -8.47535 0.751225
rclavicle -2.06736e-014 -6.36111e-015
rhumerus 11.297 -15.7441 -91.9687
rradius 33.1168
rwrist -20.3791
rhand -20.7656 -23.6297
rfingers 7.12502
rthumb 5.60071 -53.5357
lclavicle -2.06736e-014 -6.36111e-015
lhumerus -23.3697 -52.6961 100.764
lradius 72.2158
lwrist 73.4491
lhand -23.9496 59.6871
lfingers 7.12502
lthumb 2.52606 -1350.35
rfemur -29.7997 -11.4031 12.7274
rtibia 44.5862
rfoot -24.5327 -4.63187
rtoes 10.8946
lfemur -29.153 9.00759 -34.7309
ltibia 35.5938
lfoot -13.3425 -11.5284
ltoes -24.3861
